# xmcd
#
# Track frame offsets:
#	150
#	11752
#	24065
#	36478
#	48610
#	61414
#	73963
#	86573
#	98751
#	111000
#	122575
#	134233
#	147155
#	159958
#	172563
#	184526
#	196237
#	208778
#	221834
#	234813
#	247072
#	259742
#	271506
#	283588
#
# Disc length: 3936 seconds
#
# Revision: 1
# Processed by: cddbd v1.5.1PL0 Copyright (c) Steve Scherf et al.
# Submitted via: audiograbber 1.80
#
DISCID=560f5e18
DTITLE=Brownie Mcghee - A Black Woman's Man - The Essential Brownie Mcghee
DYEAR=1900
DGENRE=
TTITLE0=Step It Up And Go
TTITLE1=Me And My Dog Blues
TTITLE2=Picking My Tomatoes
TTITLE3=Death Of Blind Boy Fuller
TTITLE4=I'm A Black Woman's Man
TTITLE5=Workingman's Blues
TTITLE6=Be Good To Me
TTITLE7=Double Trouble
TTITLE8=Back Door Stranger
TTITLE9=Million Lonesome Women
TTITLE10=Dealing With The Devil
TTITLE11=Born For Bad Luck
TTITLE12=Money Spending Woman
TTITLE13=Key To My Door
TTITLE14=Deep Sea Diver
TTITLE15=Prison Woman Blues
TTITLE16=Barbecue Any Old Time
TTITLE17=It Must Be Love
TTITLE18=Ain't No Tellin'
TTITLE19=So Much Trouble
TTITLE20=Jealous Of My Woman
TTITLE21=Not Guilty Blues
TTITLE22=Let Me Tell You 'bout My Baby
TTITLE23=My Barkin' Bulldog Blues
EXTD=
EXTT0=
EXTT1=
EXTT2=
EXTT3=
EXTT4=
EXTT5=
EXTT6=
EXTT7=
EXTT8=
EXTT9=
EXTT10=
EXTT11=
EXTT12=
EXTT13=
EXTT14=
EXTT15=
EXTT16=
EXTT17=
EXTT18=
EXTT19=
EXTT20=
EXTT21=
EXTT22=
EXTT23=
PLAYORDER=
